<svg xmlns="http://www.w3.org/2000/svg" width="1200" height="675" viewBox="0 0 1200 675">
  <rect width="1200" height="675" fill="#eef4f5"/>
  <path d="M0 505 C260 455 430 525 650 482 C860 440 1030 455 1200 420 L1200 675 L0 675 Z" fill="#d9c7ae"/>
  <rect x="58" y="92" width="335" height="332" rx="22" fill="#d8e5e9" stroke="#3d5863" stroke-width="8"/>
  <rect x="88" y="125" width="275" height="160" rx="12" fill="#f9fcfd"/>
  <path d="M110 250 H340" stroke="#8ca8b2" stroke-width="7"/>
  <path d="M135 226 L165 182 L195 226 Z M225 226 L255 182 L285 226 Z" fill="#7598a4"/>
  <rect x="111" y="303" width="96" height="96" rx="12" fill="#688b96"/>
  <rect x="244" y="303" width="119" height="96" rx="12" fill="#f5f8f9"/>
  <path d="M278 350 h52 M304 324 v52" stroke="#d18a69" stroke-width="9" stroke-linecap="round"/>
  <path d="M45 424 H414" stroke="#526f79" stroke-width="13" stroke-linecap="round"/>
  <circle cx="155" cy="455" r="34" fill="#d39773"/>
  <path d="M118 501 C140 471 190 470 217 505 L246 602 H91 Z" fill="#547e86"/>
  <path d="M208 514 C258 502 292 503 334 520" fill="none" stroke="#d39773" stroke-width="18" stroke-linecap="round"/>
  <circle cx="340" cy="523" r="13" fill="#d39773"/>
  <rect x="259" y="522" width="86" height="97" rx="14" fill="#e2a65e" stroke="#8f6546" stroke-width="6"/>
  <path d="M278 522 v-25 h48 v25" fill="none" stroke="#8f6546" stroke-width="8" stroke-linecap="round"/>
  <circle cx="280" cy="626" r="10" fill="#586d73"/>
  <circle cx="326" cy="626" r="10" fill="#586d73"/>
  <path d="M430 420 C535 365 675 350 782 382" fill="none" stroke="#5a8794" stroke-width="16" stroke-linecap="round"/>
  <path d="M432 490 C560 530 715 528 853 470" fill="none" stroke="#d38463" stroke-width="13" stroke-linecap="round" stroke-dasharray="20 17"/>
  <g transform="translate(560 315)">
    <rect x="0" y="0" width="170" height="76" rx="18" fill="#5a8794"/>
    <rect x="20" y="18" width="34" height="25" rx="5" fill="#dceef2"/>
    <rect x="68" y="18" width="34" height="25" rx="5" fill="#dceef2"/>
    <rect x="116" y="18" width="34" height="25" rx="5" fill="#dceef2"/>
    <circle cx="40" cy="76" r="13" fill="#42565b"/>
    <circle cx="132" cy="76" r="13" fill="#42565b"/>
  </g>
  <g transform="translate(650 496)">
    <path d="M0 26 L38 0 H112 L144 26 L156 63 H0 Z" fill="#d38463"/>
    <rect x="44" y="9" width="54" height="20" rx="5" fill="#f3e7dc"/>
    <circle cx="35" cy="65" r="13" fill="#4f5b5e"/>
    <circle cx="122" cy="65" r="13" fill="#4f5b5e"/>
  </g>
  <rect x="860" y="92" width="256" height="360" rx="18" fill="#f3dfbd" stroke="#665d53" stroke-width="8"/>
  <rect x="895" y="135" width="55" height="66" rx="8" fill="#8eb3bd"/>
  <rect x="973" y="135" width="55" height="66" rx="8" fill="#8eb3bd"/>
  <rect x="895" y="225" width="55" height="66" rx="8" fill="#8eb3bd"/>
  <rect x="973" y="225" width="55" height="66" rx="8" fill="#8eb3bd"/>
  <rect x="930" y="323" width="82" height="129" rx="10" fill="#735e50"/>
  <path d="M1009 335 q35 20 48 55" fill="none" stroke="#8aaa7c" stroke-width="14" stroke-linecap="round"/>
  <circle cx="1058" cy="406" r="26" fill="#8aaa7c"/>
  <circle cx="811" cy="378" r="22" fill="#f1bb67" stroke="#455e66" stroke-width="6"/>
  <path d="M803 378 l7 8 13-18" fill="none" stroke="#455e66" stroke-width="5" stroke-linecap="round" stroke-linejoin="round"/>
  <circle cx="833" cy="477" r="22" fill="#f1bb67" stroke="#455e66" stroke-width="6"/>
  <path d="M825 477 l7 8 13-18" fill="none" stroke="#455e66" stroke-width="5" stroke-linecap="round" stroke-linejoin="round"/>
  <g transform="translate(443 110)">
    <circle cx="88" cy="88" r="72" fill="#fbfcfc" stroke="#526f79" stroke-width="8"/>
    <path d="M88 88 L88 45 M88 88 L123 108" stroke="#526f79" stroke-width="9" stroke-linecap="round"/>
    <circle cx="88" cy="88" r="7" fill="#526f79"/>
  </g>
  <path d="M760 170 C810 128 840 135 872 162" fill="none" stroke="#8ca8b2" stroke-width="7" stroke-dasharray="10 14" stroke-linecap="round"/>
  <path d="M760 204 C816 248 836 250 874 226" fill="none" stroke="#8ca8b2" stroke-width="7" stroke-dasharray="10 14" stroke-linecap="round"/>
</svg>