<svg xmlns="http://www.w3.org/2000/svg" width="1200" height="675" viewBox="0 0 1200 675">
<rect width="1200" height="675" rx="36" fill="#eef7ff"/>
<rect x="160" y="120" width="500" height="430" rx="32" fill="#ffffff"/>
<path d="M250 440c70-120 150-170 250-245" fill="none" stroke="#60a5fa" stroke-width="20" stroke-linecap="round" stroke-dasharray="20 24"/>
<circle cx="255" cy="435" r="38" fill="#2563eb"/>
<circle cx="505" cy="195" r="38" fill="#2563eb"/>
<circle cx="380" cy="315" r="30" fill="#22c55e"/>
<path d="M255 410c-18 0-32 14-32 32 0 28 32 61 32 61s32-33 32-61c0-18-14-32-32-32z" fill="#bfdbfe"/>
<path d="M505 170c-18 0-32 14-32 32 0 28 32 61 32 61s32-33 32-61c0-18-14-32-32-32z" fill="#bfdbfe"/>
<rect x="730" y="145" width="300" height="380" rx="28" fill="#f8fafc"/>
<rect x="785" y="205" width="190" height="22" rx="11" fill="#cbd5e1"/>
<rect x="785" y="285" width="150" height="22" rx="11" fill="#cbd5e1"/>
<rect x="785" y="365" width="175" height="22" rx="11" fill="#cbd5e1"/>
<rect x="785" y="445" width="125" height="22" rx="11" fill="#cbd5e1"/>
<circle cx="755" cy="216" r="13" fill="#3b82f6"/>
<circle cx="755" cy="296" r="13" fill="#22c55e"/>
<circle cx="755" cy="376" r="13" fill="#f59e0b"/>
<circle cx="755" cy="456" r="13" fill="#8b5cf6"/>
</svg>