<svg xmlns="http://www.w3.org/2000/svg" width="1200" height="675" viewBox="0 0 1200 675">
<defs><linearGradient id="s" x2="0" y2="1"><stop stop-color="#d7edf1"/><stop offset="1" stop-color="#f5f1e7"/></linearGradient></defs>
<rect width="1200" height="675" fill="url(#s)"/>
<path d="M0 396h1200v279H0Z" fill="#d5d8cf"/><path d="M0 548h1200v127H0Z" fill="#a9b4af"/><path d="M0 554h1200" stroke="#f4efe7" stroke-width="12" stroke-dasharray="120 60"/>
<rect x="56" y="142" width="180" height="275" fill="#b6c8c2"/><rect x="252" y="71" width="175" height="346" fill="#b8d0d0"/><rect x="441" y="164" width="145" height="255" fill="#c7d3ca"/><path d="M67 189h158m-158 55h158m-158 57h158M268 118h140m-140 62h140m-140 62h140" stroke="#eaf1ed" stroke-width="18" stroke-dasharray="24 18"/>
<g transform="translate(48 250)"><path d="M40 33h461" stroke="#4c7379" stroke-width="21" stroke-linecap="round"/><path d="M80 35v330m390-330v330" stroke="#4c7379" stroke-width="16"/><rect x="61" y="58" width="426" height="246" rx="11" fill="#e7f0e9" fill-opacity=".65" stroke="#86b3b3" stroke-width="8"/><rect x="121" y="85" width="288" height="61" rx="9" fill="#385f70"/><path d="M160 117h185" stroke="#fff4d9" stroke-width="11" stroke-linecap="round"/><rect x="102" y="324" width="363" height="18" rx="9" fill="#637d7b"/></g>
<g transform="translate(672 259)"><rect x="0" y="11" width="515" height="263" rx="45" fill="#478c92" stroke="#2b6571" stroke-width="10"/><path d="M55 39h313v114H55Z" fill="#cee7e9"/><path d="M95 41v111m118-111v111m117-111v111" stroke="#468a91" stroke-width="15"/><rect x="396" y="38" width="81" height="126" rx="13" fill="#f1e5c9"/><path d="M411 103h52" stroke="#bc8163" stroke-width="14"/><rect x="35" y="186" width="435" height="27" rx="11" fill="#30737b"/><circle cx="99" cy="271" r="43" fill="#374b53"/><circle cx="417" cy="271" r="43" fill="#374b53"/><circle cx="99" cy="271" r="22" fill="#d9dfe0"/><circle cx="417" cy="271" r="22" fill="#d9dfe0"/></g>
<g transform="translate(482 349)"><circle cx="79" cy="32" r="36" fill="#d49f7f"/><path d="M33 105q32-54 93-12l34 146H4Z" fill="#d9aa68"/><path d="M27 138l-63 31m174-27 57-44" stroke="#d49f7f" stroke-width="23" stroke-linecap="round"/><rect x="158" y="54" width="136" height="169" rx="12" fill="#fff9ed" transform="rotate(11 226 138)"/><path d="M181 88l91 17-17 67-96-17Z" fill="#e4f0e9"/><path d="M173 192l88 17" stroke="#a8bab1" stroke-width="12" stroke-linecap="round"/><path d="M43 233l-19 91m96-91 23 91" stroke="#3e5868" stroke-width="22" stroke-linecap="round"/><path d="M16 319h52m59 0h55" stroke="#333f4b" stroke-width="13" stroke-linecap="round"/></g>
</svg>